<?xml version="1.0" encoding="iso-8859-1"?>
<!-- Generator: Adobe Illustrator 19.0.0, SVG Export Plug-In . SVG Version: 6.00 Build 0)  -->
<svg version="1.1" id="Layer_1" xmlns="http://www.w3.org/2000/svg" xmlns:xlink="http://www.w3.org/1999/xlink" x="0px" y="0px"
	 viewBox="0 0 512 512" style="enable-background:new 0 0 512 512;" xml:space="preserve">
<polygon style="fill:#ADA7A4;" points="491.915,321.03 477.249,11.584 407.747,11.584 395.22,270.162 "/>
<polygon style="fill:#CCC4C1;" points="256,162.172 256,226.462 133.792,162.172 133.792,226.462 11.584,162.172 11.584,500.416 
	352.917,500.416 403.499,477.249 454.081,500.416 500.416,500.416 500.416,290.751 "/>
<g>
	<polygon style="fill:#EBEDEC;" points="57.919,337.086 57.919,423.964 97.857,423.964 184.735,380.525 184.735,337.086 	"/>
	<polygon style="fill:#EBEDEC;" points="306.583,337.086 266.643,337.086 179.765,380.525 179.765,423.964 306.583,423.964 	"/>
</g>
<polygon style="fill:#FFFFFF;" points="184.735,337.086 97.857,423.964 179.765,423.964 266.643,337.086 "/>
<rect x="352.921" y="337.086" style="fill:#EE3840;" width="101.161" height="163.33"/>
<g>
	<path style="fill:#11113F;" d="M46.335,337.086v86.878c0,6.397,5.187,11.584,11.584,11.584h248.664
		c6.397,0,11.584-5.187,11.584-11.584v-86.878c0-6.397-5.187-11.584-11.584-11.584H57.919
		C51.522,325.502,46.335,330.689,46.335,337.086z M294.999,412.38h-87.267l63.71-63.71h23.557V412.38z M69.502,348.67h87.266
		l-32.351,32.352c-4.523,4.523-4.523,11.858,0,16.383c2.262,2.261,5.227,3.393,8.191,3.393c2.964,0,5.929-1.132,8.191-3.393
		l48.734-48.735h49.145l-63.71,63.71H69.502V348.67z"/>
	<path style="fill:#11113F;" d="M398.158,209.554c6.353,0.276,11.821-4.621,12.13-11.01l8.494-175.376h47.419l10.545,222.501
		c0.294,6.203,5.417,11.035,11.562,11.035c0.184,0,0.371-0.005,0.557-0.013c6.391-0.303,11.324-5.729,11.023-12.12L488.82,11.035
		C488.527,4.857,483.433,0,477.249,0h-69.502c-6.18,0-11.271,4.851-11.57,11.024l-9.03,186.4
		C386.837,203.813,391.767,209.245,398.158,209.554z"/>
	<path style="fill:#11113F;" d="M505.81,280.5L261.393,151.92c-3.592-1.89-7.908-1.762-11.381,0.335
		c-3.474,2.098-5.596,5.859-5.596,9.917v45.107L139.185,151.92c-3.592-1.89-7.908-1.762-11.381,0.335
		c-3.474,2.098-5.596,5.859-5.596,9.917v45.107L16.977,151.92c-3.593-1.89-7.908-1.762-11.381,0.335
		C2.122,154.353,0,158.114,0,162.172v338.244C0,506.813,5.187,512,11.584,512h341.334h101.164h46.335
		c6.397,0,11.584-5.187,11.584-11.584V290.751C512,286.449,509.616,282.502,505.81,280.5z M364.501,488.833V348.67h77.997v140.163
		H364.501z M488.833,488.833h-23.167V337.086c0-6.397-5.187-11.584-11.584-11.584H352.917c-6.397,0-11.584,5.187-11.584,11.584
		v151.747H23.167V181.355l105.231,55.359c3.593,1.89,7.908,1.762,11.381-0.335c3.474-2.098,5.596-5.859,5.596-9.917v-45.107
		l105.231,55.359c3.593,1.89,7.908,1.762,11.381-0.335c3.474-2.098,5.596-5.859,5.596-9.917v-45.107l221.249,116.392V488.833z"/>
</g>
<g>
</g>
<g>
</g>
<g>
</g>
<g>
</g>
<g>
</g>
<g>
</g>
<g>
</g>
<g>
</g>
<g>
</g>
<g>
</g>
<g>
</g>
<g>
</g>
<g>
</g>
<g>
</g>
<g>
</g>
</svg>
