<?xml version="1.0" encoding="iso-8859-1"?>
<!-- Generator: Adobe Illustrator 19.0.0, SVG Export Plug-In . SVG Version: 6.00 Build 0)  -->
<svg version="1.1" id="Layer_1" xmlns="http://www.w3.org/2000/svg" xmlns:xlink="http://www.w3.org/1999/xlink" x="0px" y="0px"
	 viewBox="0 0 511.985 511.985" style="enable-background:new 0 0 511.985 511.985;" xml:space="preserve">
<path style="fill:#424953;" d="M460.202,407.677l-1.812-0.516c-26.468-7.109-35.437-13.938-47.218-18.422
	c-41.779-15.92-52.653-27.404-55.435-32.826c-0.109-0.188-0.188-0.406-0.281-0.594l-0.344-48.547l-99.123-1.125l-99.13,1.125
	l-0.344,48.547c-0.086,0.188-0.164,0.406-0.266,0.594c-2.781,5.422-13.656,16.906-55.452,32.826
	c-11.78,4.484-20.741,11.312-47.209,18.422l-1.812,0.516c-24.101,7.969-40.304,30.311-40.304,55.529v48.779h244.517h244.524v-48.779
	C500.514,437.987,484.295,415.645,460.202,407.677z"/>
<polygon style="fill:#D94452;" points="285.019,437.315 226.967,437.315 211.693,511.985 300.284,511.985 "/>
<polygon style="fill:#EC5564;" points="198.521,351.991 226.967,437.315 285.019,437.315 313.456,351.991 "/>
<path style="fill:#646C77;" d="M362.127,365.335l-6.952-48.812c-0.781-3.078-5.281,6.844-8.156,5.5
	c-2.844-1.359-6.172-1.375-9.047-0.031L255.99,360.07l-81.981-38.078c-2.875-1.344-6.195-1.328-9.055,0.031
	c-2.867,1.344-6.359-7.953-7.148-4.875l-7.953,48.188c-0.672,2.609-0.328,5.375,0.953,7.734l31.812,58.668
	c1.531,2.828,4.266,4.812,7.438,5.406c0.641,0.125,1.289,0.172,1.938,0.172c2.523,0,4.991-0.891,6.937-2.562l57.062-48.889
	l57.061,48.889c1.938,1.672,4.406,2.562,6.938,2.562c0.656,0,1.281-0.047,1.938-0.172c3.172-0.594,5.906-2.578,7.438-5.406
	l31.812-58.668C362.455,370.71,362.799,367.944,362.127,365.335z"/>
<path style="fill:#EAC6BB;" d="M255.989,64.858c-75.967,0-137.551,58.967-137.551,148.339c0,89.374,85.2,171.62,137.551,171.62
	c52.342,0,137.558-82.246,137.558-171.62C393.547,123.825,331.956,64.858,255.989,64.858z"/>
<path style="fill:#EC5564;" d="M255.989,21.327c-82.474,0-149.332,66.858-149.332,149.34v21.327h298.671v-21.327
	C405.328,88.185,338.456,21.327,255.989,21.327z"/>
<g>
	<path style="fill:#D94452;" d="M415.984,191.994H95.993c-5.89,0-10.663-4.781-10.663-10.671c0-5.891,4.773-10.656,10.663-10.656
		h319.991c5.891,0,10.656,4.765,10.656,10.656C426.64,187.214,421.875,191.994,415.984,191.994z"/>
	<path style="fill:#D94452;" d="M213.349,106.7c-5.891,0-10.664-4.766-10.672-10.656l-0.023-74.701c0-4.062,2.297-7.765,5.922-9.562
		C209.545,11.297,232.568,0,255.989,0s46.436,11.296,47.404,11.781c3.625,1.797,5.938,5.5,5.938,9.546v73.342
		c0,5.89-4.781,10.656-10.687,10.656c-5.875,0-10.656-4.766-10.656-10.656V28.343c-7.188-2.844-19.827-7.016-31.999-7.016
		c-11.547,0-24.179,3.922-31.999,6.984l0.023,67.717C224.014,101.934,219.24,106.7,213.349,106.7L213.349,106.7z"/>
</g>
<g>
</g>
<g>
</g>
<g>
</g>
<g>
</g>
<g>
</g>
<g>
</g>
<g>
</g>
<g>
</g>
<g>
</g>
<g>
</g>
<g>
</g>
<g>
</g>
<g>
</g>
<g>
</g>
<g>
</g>
</svg>
